Coordinates	
version=1	
nRows=210	
nColumns=2	
inDegrees=yes	
endheader	
time	elbow_flexion
3.753321191	8.754732615
3.755725443	8.742853061
3.758129694	8.730659228
3.760533946	8.718166145
3.762938198	8.705389173
3.76534245	8.692343986
3.767746702	8.67904656
3.770661075	8.662612928
3.772847531	8.650073994
3.775033987	8.637369164
3.777846924	8.620800721
3.780333723	8.605964418
3.782820522	8.590971109
3.785307322	8.575840379
3.787794121	8.560592003
3.79028092	8.545245922
3.79248757	8.531563019
3.79469422	8.517833116
3.796900869	8.504070388
3.799930307	8.485148576
3.802320792	8.47021713
3.804711276	8.455304995
3.807101761	8.440430327
3.809492245	8.42561126
3.811882729	8.410865878
3.814273214	8.396212198
3.816663698	8.381668144
3.819054183	8.367251521
3.821987973	8.349758436
3.824320876	8.336025698
3.826653779	8.322467636
3.828986683	8.309100103
3.831319586	8.295938731
3.833652489	8.282998911
3.836599182	8.266994753
3.838954622	8.254493417
3.841310061	8.242267293
3.8436655	8.230330909
3.846020939	8.218698422
3.848376378	8.207383603
3.851333376	8.193649276
3.853641238	8.183308871
3.855949099	8.173313385
3.858256961	8.163674
3.861032706	8.152567223
3.86341951	8.143454598
3.865806313	8.134758122
3.868193117	8.126487885
3.87057992	8.118653381
3.872966724	8.111263489
3.875353527	8.104326454
3.877740331	8.09784988
3.880628139	8.090639304
3.882937739	8.085372299
3.88524734	8.080554936
3.887556941	8.076191562
3.889866542	8.072285914
3.892799046	8.067991284
3.895136272	8.065103785
3.897473499	8.062693124
3.899810725	8.06076041
3.902147951	8.059306097
3.904957901	8.058190631
3.907375435	8.057782876
3.909792969	8.057883733
3.912210503	8.05849064
3.914628037	8.059600307
3.91704557	8.061208722
3.919463104	8.063311163
3.921880638	8.065902209
3.924298172	8.06897575
3.926715706	8.072525008
3.92913324	8.076542544
3.931550773	8.081020285
3.933968307	8.085949531
3.936385841	8.091320982
3.938803375	8.097124754
3.941220909	8.103350401
3.943638442	8.109986939
3.946055976	8.117022863
3.94847351	8.124446179
3.950891044	8.132244419
3.953308578	8.140404672
3.956219921	8.150693308
3.958426145	8.158812163
3.96063237	8.167196856
3.963343308	8.177847496
3.966054245	8.188862074
3.968245987	8.19801866
3.97043773	8.207387782
3.973131022	8.219174846
3.975824315	8.231243517
3.97805803	8.241450659
3.980291746	8.251823604
3.983010343	8.264653414
3.98572894	8.277686628
3.987820882	8.287839409
3.989912824	8.29808815
3.992774607	8.312244483
3.995636391	8.3265331
3.997708813	8.336947631
3.999781235	8.347406912
4.002724264	8.362316815
4.005318042	8.375491675
4.00791182	8.38867793
4.010178529	8.400195315
4.012445238	8.411693365
4.014711947	8.423159215
4.017588203	8.437642098
4.01999204	8.449672171
4.022395877	8.461619174
4.024799715	8.473468661
4.027203552	8.485206447
4.02960739	8.496818618
4.032011227	8.508291548
4.034415064	8.519611909
4.036818902	8.530766683
4.039222739	8.541743178
4.041626577	8.552529033
4.044030414	8.563112233
4.046434252	8.573481115
4.049388231	8.585912891
4.051556288	8.594808596
4.053724345	8.603502193
4.056577174	8.614621206
4.058990945	8.623733575
4.061404716	8.632565183
4.063818487	8.641107038
4.066232258	8.649350567
4.068646029	8.657287615
4.0710598	8.664910453
4.073473571	8.672211779
4.075887342	8.679184725
4.078301113	8.685822853
4.080714884	8.692120163
4.083128655	8.698071091
4.085542426	8.703670512
4.087956197	8.70891374
4.090369968	8.713796531
4.093278273	8.719195569
4.095491705	8.722946663
4.097705137	8.726385897
4.100482584	8.730257442
4.102924495	8.733250759
4.105366405	8.735858274
4.107808316	8.738078859
4.110250227	8.739911835
4.112692138	8.741356973
4.115134049	8.74241449
4.11757596	8.743085045
4.120017871	8.743369739
4.122459782	8.743270106
4.124901693	8.742788115
4.127343603	8.74192616
4.129785514	8.740687058
4.132227425	8.739074046
4.134669336	8.737090772
4.137111247	8.734741293
4.139553158	8.732030067
4.141995069	8.728961949
4.14443698	8.725542184
4.14687889	8.721776399
4.149320801	8.717670601
4.151762712	8.713231163
4.154204623	8.708464823
4.156646534	8.703378675
4.159088445	8.697980159
4.161530356	8.692277055
4.163972267	8.686277472
4.166414177	8.679989845
4.168856088	8.67342292
4.171052365	8.667285467
4.173248641	8.660936185
4.175920281	8.652937195
4.178591922	8.644648008
4.180846109	8.637438107
4.183100297	8.630039264
4.185354484	8.622459844
4.188252473	8.612464173
4.190664551	8.603941007
4.193076629	8.595244596
4.195488706	8.58638603
4.197900784	8.577376573
4.200312862	8.568227652
4.202724939	8.558950846
4.205137017	8.549557869
4.207549095	8.540060564
4.209961172	8.530470882
4.21237325	8.520800874
4.214785328	8.511062677
4.217197405	8.501268496
4.219609483	8.491430595
4.222021561	8.481561277
4.224433638	8.471672877
4.227339098	8.459754008
4.22965369	8.450266411
4.231968282	8.440797184
4.234282873	8.431357183
4.236597465	8.421957223
4.239587305	8.409891691
4.241799792	8.401031285
4.244012278	8.392239148
4.246789542	8.381313358
4.249273992	8.371657551
4.251758442	8.362126381
4.254242891	8.352732324
4.256727341	8.343487652
4.25921179	8.334404419
4.261418542	8.326481385
4.263625295	8.318703159
